<svg xmlns="http://www.w3.org/2000/svg"
     height="265.63307493540054" width="400"
     viewBox="0, 0, 400, 265.63307493540054">
    <g>
        <path fill="#7b0443" fill-rule="evenodd"
              d="M0.000 132.890 L 0.000 265.781 200.000 265.781 L 400.000 265.781 400.000 132.890 L 400.000 0.000 200.000 0.000 L 0.000 0.000 0.000 132.890 M202.109 25.154 C 203.580 26.125,205.203 27.186,205.714 27.512 C 206.226 27.839,207.841 28.884,209.302 29.835 C 212.426 31.868,216.363 33.976,218.605 34.818 C 219.482 35.147,220.618 35.572,221.130 35.762 C 226.976 37.934,237.402 37.971,244.518 35.846 C 245.030 35.693,246.047 35.407,246.777 35.211 C 247.508 35.015,249.661 34.299,251.561 33.622 C 259.046 30.953,258.151 30.700,264.186 37.199 C 266.013 39.167,268.352 41.678,269.383 42.780 C 270.414 43.882,271.968 45.558,272.838 46.505 C 273.707 47.451,274.977 48.827,275.659 49.561 C 276.341 50.296,277.227 51.256,277.627 51.694 C 278.027 52.133,279.813 54.047,281.596 55.947 C 287.820 62.579,287.819 60.087,281.603 72.957 C 276.794 82.915,276.762 83.108,277.730 96.149 C 278.015 99.988,278.440 104.413,278.674 105.983 C 279.625 112.359,280.732 118.157,281.604 121.329 C 281.805 122.060,282.278 123.794,282.655 125.183 C 283.033 126.571,283.515 128.306,283.726 129.037 C 284.367 131.254,285.998 137.468,286.621 140.066 C 287.132 142.195,288.162 147.598,288.901 152.027 C 289.206 153.854,289.634 156.306,289.852 157.475 C 291.301 165.246,291.540 169.593,290.747 173.741 C 288.782 184.019,281.977 193.605,273.758 197.673 C 273.391 197.855,272.611 198.299,272.027 198.660 C 271.442 199.021,269.409 200.083,267.508 201.020 C 264.239 202.631,263.266 203.087,260.266 204.411 C 259.571 204.717,258.645 205.132,258.206 205.331 C 257.767 205.531,256.093 206.244,254.485 206.914 C 249.059 209.178,248.365 209.502,238.804 214.220 C 234.126 216.529,229.342 218.862,228.173 219.404 C 225.240 220.764,219.360 223.711,218.073 224.465 C 217.488 224.808,216.761 225.204,216.457 225.345 C 215.579 225.751,211.652 228.476,209.730 230.013 C 207.565 231.745,204.787 234.660,200.668 239.522 C 199.518 240.879,198.967 241.002,198.152 240.083 C 197.787 239.672,196.019 237.665,194.222 235.624 C 191.029 231.996,188.031 229.303,184.850 227.206 C 181.734 225.150,175.810 221.984,170.498 219.535 C 165.204 217.093,161.321 215.199,155.600 212.267 C 152.668 210.764,150.730 209.870,146.312 207.983 C 143.443 206.758,143.010 206.570,140.598 205.501 C 139.940 205.210,138.086 204.397,136.478 203.695 C 124.289 198.373,117.220 193.455,113.403 187.641 C 107.608 178.816,106.003 170.562,108.024 160.000 C 108.623 156.876,109.470 152.012,109.644 150.698 C 109.927 148.571,111.248 141.928,111.943 139.136 C 112.088 138.551,112.365 137.415,112.558 136.611 C 112.881 135.264,113.562 132.757,114.796 128.372 C 115.942 124.304,116.476 122.326,116.700 121.329 C 116.831 120.744,117.109 119.608,117.317 118.804 C 118.307 114.987,119.476 108.028,120.020 102.724 C 120.856 94.565,120.972 92.463,120.867 87.332 C 120.742 81.211,120.790 81.404,117.878 75.349 C 116.893 73.302,115.488 70.372,114.754 68.837 C 114.020 67.302,113.017 65.226,112.524 64.223 C 111.196 61.522,110.513 62.657,118.937 53.567 C 120.837 51.517,122.571 49.650,122.791 49.418 C 123.010 49.187,124.505 47.579,126.113 45.844 C 127.721 44.110,129.216 42.497,129.435 42.261 C 129.654 42.025,131.149 40.403,132.757 38.656 C 134.365 36.910,136.483 34.657,137.464 33.649 L 139.248 31.815 141.113 31.989 C 142.138 32.084,143.369 32.327,143.847 32.529 C 156.505 37.865,167.892 38.832,178.048 35.432 C 182.588 33.913,186.455 31.721,195.863 25.337 C 199.296 23.008,198.876 23.020,202.109 25.154 M171.353 106.902 C 170.925 107.215,170.857 108.123,170.624 116.680 C 170.483 121.868,170.245 128.363,170.096 131.114 C 169.946 133.864,169.888 136.219,169.967 136.346 C 170.046 136.473,170.165 138.648,170.231 141.179 C 170.524 152.328,170.667 154.429,171.218 155.715 C 173.257 160.469,176.309 166.925,177.012 167.973 C 177.257 168.339,178.196 170.050,179.098 171.776 C 180.747 174.931,182.925 178.926,183.400 179.668 C 183.541 179.887,183.773 180.306,183.916 180.598 C 184.060 180.890,184.448 181.568,184.779 182.104 C 185.111 182.640,186.072 184.254,186.916 185.692 C 187.760 187.129,189.122 189.382,189.943 190.698 C 190.763 192.013,191.717 193.579,192.062 194.178 C 193.116 196.004,193.313 196.095,196.412 196.178 C 200.061 196.275,200.075 196.220,197.441 191.934 C 196.618 190.594,192.721 184.040,190.700 180.598 C 189.585 178.698,188.530 176.911,188.356 176.627 C 188.182 176.343,187.670 175.506,187.218 174.766 C 186.766 174.027,186.207 172.884,185.976 172.226 C 185.744 171.568,185.300 170.372,184.989 169.568 C 184.677 168.764,184.121 167.329,183.754 166.379 C 183.387 165.429,182.980 164.227,182.850 163.709 C 182.720 163.190,182.250 161.875,181.806 160.785 C 181.362 159.695,180.997 158.684,180.996 158.538 C 180.995 158.392,180.806 157.914,180.578 157.476 C 179.866 156.109,179.423 153.643,179.124 149.369 C 178.965 147.103,178.722 144.472,178.583 143.522 C 177.814 138.245,177.745 136.634,178.174 134.005 C 178.405 132.588,178.722 130.121,178.879 128.524 C 179.036 126.926,179.213 125.539,179.273 125.441 C 179.334 125.344,179.564 123.542,179.785 121.436 C 180.006 119.331,180.314 116.950,180.468 116.146 C 180.622 115.342,180.822 113.185,180.911 111.353 C 181.118 107.113,181.204 107.219,177.349 106.996 C 175.774 106.904,173.887 106.768,173.155 106.693 C 172.287 106.604,171.662 106.676,171.353 106.902 M284.138 142.483 C 284.128 143.008,284.293 144.012,284.504 144.714 C 284.715 145.417,284.966 146.662,285.060 147.481 C 285.155 148.300,285.391 149.628,285.584 150.432 C 285.777 151.236,286.013 152.671,286.108 153.621 C 286.203 154.571,286.442 155.947,286.639 156.678 C 286.836 157.409,287.079 158.784,287.179 159.734 C 287.279 160.684,287.528 162.277,287.733 163.273 C 288.894 168.910,287.468 177.680,284.636 182.326 C 284.503 182.545,284.215 183.083,283.996 183.522 C 283.519 184.478,283.103 185.142,282.392 186.077 C 282.100 186.462,281.621 187.115,281.329 187.529 C 280.119 189.240,275.867 193.223,275.250 193.223 C 275.173 193.223,274.544 193.611,273.853 194.086 C 270.989 196.055,264.622 199.292,258.339 201.974 C 257.243 202.442,255.927 203.013,255.415 203.242 C 254.904 203.472,254.126 203.813,253.688 203.999 C 253.249 204.186,252.210 204.649,251.379 205.027 C 250.547 205.405,249.770 205.714,249.651 205.714 C 249.383 205.713,249.178 205.811,238.937 210.848 C 234.332 213.113,229.488 215.468,228.173 216.081 C 223.523 218.248,217.005 221.515,216.659 221.851 C 216.466 222.039,216.155 222.193,215.969 222.193 C 215.782 222.193,215.354 222.432,215.017 222.724 C 214.680 223.017,214.307 223.256,214.189 223.256 C 213.889 223.256,209.845 226.024,208.239 227.328 C 207.027 228.313,203.057 232.247,200.174 235.322 L 199.019 236.554 198.313 235.671 C 196.264 233.105,190.429 227.243,189.924 227.243 C 189.838 227.243,189.537 227.033,189.255 226.777 C 188.470 226.065,186.771 224.807,185.756 224.186 C 181.785 221.758,178.080 219.817,171.694 216.819 C 166.904 214.571,164.860 213.594,163.322 212.820 C 156.604 209.436,152.992 207.642,152.118 207.257 C 151.556 207.009,150.379 206.488,149.502 206.098 C 145.855 204.477,145.353 204.261,142.458 203.055 C 141.362 202.598,140.047 202.037,139.535 201.807 C 139.023 201.578,138.126 201.174,137.542 200.911 C 134.169 199.392,129.798 197.213,127.761 196.036 C 124.709 194.271,124.712 194.273,123.351 193.350 C 122.709 192.914,121.961 192.427,121.689 192.268 C 120.857 191.778,116.950 187.796,116.946 187.434 C 116.945 187.246,116.769 187.026,116.555 186.944 C 116.341 186.862,116.094 186.567,116.006 186.289 C 115.918 186.011,115.694 185.633,115.510 185.448 C 115.053 184.991,113.787 182.568,112.281 179.269 C 110.627 175.644,109.969 164.163,111.148 159.468 C 111.386 158.518,111.662 157.023,111.761 156.146 C 111.860 155.269,112.063 154.073,112.212 153.488 C 112.361 152.904,112.641 151.349,112.835 150.033 C 113.028 148.718,113.380 146.753,113.617 145.667 C 113.853 144.582,114.011 143.326,113.967 142.877 C 113.825 141.429,112.514 147.588,111.490 154.504 C 111.278 155.940,111.040 157.218,110.963 157.344 C 110.765 157.664,110.061 162.802,109.784 165.959 C 109.381 170.532,110.680 178.488,112.126 180.304 C 112.255 180.466,112.448 180.883,112.555 181.232 C 112.766 181.919,114.195 184.480,115.314 186.176 C 117.962 190.188,122.205 193.727,128.282 196.989 C 132.585 199.299,135.531 200.700,140.731 202.909 C 143.846 204.232,144.544 204.537,146.474 205.420 C 147.148 205.728,147.771 205.980,147.860 205.980 C 148.159 205.980,152.148 207.880,160.399 211.953 C 164.930 214.190,169.236 216.289,169.967 216.617 C 172.983 217.970,181.566 222.269,182.455 222.872 C 182.982 223.229,183.474 223.522,183.549 223.522 C 183.625 223.522,184.884 224.321,186.347 225.298 C 190.384 227.995,193.222 230.611,197.899 235.947 C 199.140 237.362,199.210 237.325,202.791 233.355 C 205.589 230.252,210.747 225.648,211.424 225.648 C 211.503 225.648,212.134 225.253,212.827 224.771 C 213.519 224.289,215.103 223.327,216.346 222.633 C 217.588 221.939,218.784 221.257,219.003 221.117 C 219.223 220.977,219.701 220.743,220.066 220.598 C 220.432 220.452,220.910 220.213,221.130 220.066 C 221.349 219.919,221.827 219.672,222.193 219.517 C 222.558 219.362,223.814 218.778,224.983 218.219 C 226.153 217.660,228.186 216.701,229.502 216.087 C 231.927 214.955,237.107 212.392,241.462 210.170 C 244.624 208.556,248.811 206.659,254.219 204.390 C 254.512 204.268,255.289 203.928,255.947 203.636 C 256.605 203.343,258.040 202.718,259.136 202.247 C 272.476 196.508,279.008 192.132,282.887 186.334 C 288.951 177.273,289.950 169.836,287.023 155.540 C 286.865 154.769,286.572 153.034,286.372 151.687 C 285.786 147.733,284.988 143.735,284.557 142.591 L 284.157 141.528 284.138 142.483 M209.738 149.502 C 209.738 153.887,209.832 156.725,209.967 156.412 C 210.092 156.120,210.195 153.010,210.195 149.502 C 210.195 145.993,210.092 142.884,209.967 142.591 C 209.832 142.278,209.738 145.117,209.738 149.502 M213.330 142.768 C 212.837 144.609,213.199 157.589,213.721 156.767 C 213.844 156.572,213.945 153.362,213.945 149.635 C 213.945 143.325,213.753 141.185,213.330 142.768 M204.655 149.552 C 204.658 154.251,204.747 156.542,204.917 156.279 C 205.268 155.736,205.268 142.808,204.917 142.591 C 204.742 142.483,204.653 144.869,204.655 149.552 M218.206 150.321 C 218.206 156.493,218.277 158.160,218.538 158.073 C 218.884 157.958,219.188 144.344,218.874 143.056 C 218.390 141.077,218.206 143.078,218.206 150.321 M222.104 142.636 C 221.807 142.933,221.894 158.937,222.193 158.937 C 222.364 158.937,222.458 156.013,222.458 150.698 C 222.458 146.166,222.419 142.458,222.370 142.458 C 222.321 142.458,222.202 142.538,222.104 142.636 M226.977 151.878 C 226.977 157.871,227.073 161.357,227.243 161.462 C 227.418 161.570,227.508 158.364,227.508 152.042 C 227.508 145.830,227.415 142.458,227.243 142.458 C 227.070 142.458,226.977 145.776,226.977 151.878 "/>
        <path fill="#93cbe9" fill-rule="evenodd"
              d="M195.615 28.727 C 190.768 31.927,188.880 33.142,187.375 34.028 C 180.359 38.160,173.336 40.131,165.615 40.135 C 159.442 40.138,154.448 39.096,144.630 35.757 C 141.109 34.559,140.042 34.445,139.598 35.217 C 139.490 35.405,137.847 37.210,135.947 39.228 C 132.647 42.734,131.654 43.803,127.459 48.362 C 125.509 50.481,123.913 52.188,118.538 57.903 C 114.267 62.444,114.407 61.978,116.209 65.681 C 122.941 79.517,122.891 79.395,123.453 83.316 C 123.936 86.689,123.934 86.821,123.174 97.542 C 122.699 104.230,121.581 112.307,120.507 116.811 C 120.297 117.688,120.020 118.944,119.890 119.601 C 119.615 120.999,118.490 125.206,116.797 131.163 C 115.612 135.336,114.237 140.930,114.185 141.794 C 114.149 142.396,167.912 142.772,169.467 142.181 L 170.153 141.920 169.960 138.572 C 169.853 136.726,169.908 131.569,170.083 127.080 C 170.257 122.601,170.492 116.246,170.605 112.957 L 170.811 106.977 169.716 105.887 L 168.621 104.798 165.830 104.611 C 163.154 104.432,162.647 104.477,161.462 105.001 C 161.169 105.130,159.794 105.600,158.405 106.047 C 157.017 106.493,155.631 106.984,155.326 107.138 C 153.935 107.842,153.230 107.377,153.142 105.697 C 153.057 104.052,153.501 103.388,155.839 101.661 C 156.234 101.369,156.705 101.005,156.884 100.853 C 157.063 100.701,157.916 100.073,158.781 99.458 L 160.352 98.339 164.362 98.335 C 170.421 98.330,170.480 98.286,167.394 96.056 C 163.725 93.406,164.177 93.557,158.936 93.231 L 154.214 92.938 152.536 93.811 C 147.614 96.372,146.939 96.829,143.680 99.801 C 143.520 99.947,142.611 100.723,141.661 101.527 C 140.711 102.330,139.838 103.137,139.721 103.321 C 139.604 103.504,139.215 103.654,138.857 103.654 C 138.020 103.654,138.024 103.305,138.901 100.465 C 140.565 95.073,140.392 95.360,143.495 92.823 C 145.045 91.556,146.372 90.437,146.445 90.336 C 146.955 89.629,150.150 87.396,151.175 87.031 C 151.863 86.786,152.784 86.432,153.223 86.244 C 153.661 86.057,154.710 85.656,155.552 85.354 C 156.395 85.052,157.713 84.560,158.481 84.263 C 159.544 83.850,160.542 83.715,162.663 83.695 C 164.195 83.680,166.429 83.590,167.628 83.495 L 169.807 83.322 169.355 82.748 C 168.626 81.820,156.982 81.354,154.583 82.157 C 151.392 83.225,149.567 84.057,147.687 85.301 C 146.639 85.995,145.376 86.791,144.882 87.069 C 143.250 87.988,142.998 88.149,142.506 88.595 C 141.917 89.128,141.298 89.162,140.900 88.681 C 140.603 88.323,141.121 87.317,143.558 83.527 C 144.050 82.762,144.751 81.641,145.116 81.035 C 145.875 79.777,146.325 79.453,151.483 76.449 C 152.954 75.592,154.224 74.785,154.304 74.655 C 154.384 74.525,154.824 74.419,155.281 74.419 C 155.738 74.419,156.957 74.192,157.990 73.916 C 162.367 72.743,163.614 72.557,167.081 72.557 C 171.253 72.558,171.792 72.225,169.350 71.155 C 167.957 70.544,167.604 70.503,164.784 70.614 C 161.489 70.743,161.065 70.862,156.495 72.935 C 155.663 73.313,154.803 73.621,154.584 73.621 C 154.364 73.621,154.110 73.741,154.020 73.887 C 153.774 74.285,153.090 74.207,153.090 73.781 C 153.090 73.576,153.528 72.769,154.063 71.987 C 154.598 71.205,155.345 70.104,155.723 69.540 C 156.450 68.455,157.766 67.649,159.734 67.083 C 160.392 66.894,161.827 66.430,162.924 66.052 C 164.864 65.383,165.004 65.372,168.187 65.639 C 173.017 66.044,174.884 66.007,174.884 65.506 C 174.884 63.861,173.860 63.029,169.568 61.182 C 166.670 59.934,166.876 59.166,170.233 58.703 C 174.326 58.138,176.825 58.860,179.680 61.431 C 181.504 63.073,181.188 63.165,184.452 60.047 C 185.987 58.581,187.519 57.268,187.858 57.129 C 188.710 56.780,195.966 56.803,196.319 57.157 C 196.757 57.594,196.416 58.701,195.785 58.894 C 195.255 59.055,194.030 59.590,191.096 60.943 C 189.793 61.544,187.110 63.461,187.110 63.791 C 187.110 64.218,188.116 64.343,191.350 64.317 C 193.184 64.303,194.889 64.297,195.139 64.305 C 195.725 64.323,201.462 69.302,201.462 69.793 C 201.462 70.432,200.427 70.308,194.551 68.963 C 192.399 68.470,191.775 68.471,189.857 68.970 C 189.016 69.189,187.944 69.369,187.475 69.369 C 186.450 69.369,184.983 71.120,184.983 72.345 L 184.983 73.090 191.092 73.090 C 197.621 73.090,198.509 73.240,202.924 75.093 C 205.447 76.152,214.219 85.211,214.219 86.758 C 214.219 87.374,213.521 87.771,212.978 87.462 C 208.413 84.868,200.620 81.533,198.298 81.179 C 191.039 80.076,190.639 80.053,189.836 80.699 C 188.867 81.478,188.683 81.419,195.590 82.540 C 197.892 82.914,200.587 83.666,201.679 84.239 C 201.925 84.368,203.198 84.873,204.508 85.360 L 206.890 86.246 211.165 90.498 C 215.007 94.319,219.269 99.702,219.269 100.732 C 219.269 101.915,218.598 101.703,213.289 98.843 C 212.266 98.291,210.651 97.452,209.701 96.978 C 208.751 96.503,207.794 95.974,207.575 95.801 C 207.082 95.413,203.872 94.461,202.259 94.225 C 201.601 94.129,200.465 93.849,199.734 93.603 C 198.657 93.241,197.348 93.156,192.824 93.156 L 187.243 93.156 185.116 94.407 C 183.018 95.640,182.079 96.561,182.594 96.878 C 183.022 97.143,185.564 97.756,188.068 98.198 C 192.987 99.067,193.909 99.289,194.684 99.794 C 195.413 100.268,197.936 102.288,198.732 103.033 C 198.913 103.203,200.086 104.154,201.337 105.146 C 203.684 107.006,204.403 108.411,202.924 108.246 C 201.670 108.107,196.359 106.974,193.132 106.158 C 191.763 105.811,191.339 105.811,189.544 106.157 C 188.424 106.373,186.135 106.806,184.456 107.118 C 182.778 107.431,181.313 107.743,181.201 107.812 C 181.088 107.882,180.988 109.337,180.977 111.046 C 180.967 112.755,180.855 114.811,180.730 115.615 C 180.605 116.419,180.368 118.153,180.204 119.468 C 180.041 120.784,179.793 122.757,179.653 123.854 C 179.514 124.950,179.278 126.864,179.128 128.106 C 178.979 129.349,178.664 131.673,178.428 133.271 C 177.955 136.479,178.079 140.835,178.668 141.723 C 178.996 142.217,203.915 142.515,204.692 142.035 C 204.816 141.958,204.917 139.986,204.917 137.652 C 204.917 133.489,204.928 133.405,205.515 133.205 C 206.281 132.944,226.645 133.002,226.911 133.266 C 227.020 133.375,227.169 135.398,227.243 137.762 L 227.375 142.060 255.548 141.973 C 271.043 141.925,283.826 141.784,283.955 141.659 C 284.216 141.407,282.813 135.342,281.685 131.841 C 281.522 131.337,281.237 130.321,281.052 129.582 C 280.866 128.844,280.392 127.103,279.999 125.714 C 278.758 121.333,277.681 116.557,277.060 112.691 C 276.837 111.302,276.551 109.748,276.424 109.236 C 276.297 108.724,276.116 107.468,276.022 106.445 C 275.929 105.422,275.658 103.209,275.420 101.528 C 275.099 99.253,274.983 96.299,274.969 89.967 C 274.948 80.355,274.884 80.753,277.215 75.880 C 277.915 74.419,279.230 71.668,280.138 69.767 C 281.046 67.867,282.185 65.492,282.671 64.489 C 283.692 62.377,283.637 61.998,282.071 60.374 C 280.813 59.070,278.829 56.938,271.894 49.438 C 270.213 47.620,267.992 45.231,266.959 44.129 C 265.926 43.028,263.485 40.411,261.533 38.315 C 257.620 34.112,258.045 34.326,255.282 35.175 C 254.551 35.399,252.399 36.125,250.498 36.787 C 234.660 42.304,221.551 41.046,208.949 32.799 C 207.682 31.969,206.226 31.027,205.714 30.706 C 205.203 30.384,203.671 29.384,202.310 28.482 C 199.204 26.426,199.094 26.430,195.615 28.727 M248.198 66.072 C 249.417 66.292,250.613 66.575,250.855 66.702 C 251.098 66.829,252.193 67.342,253.289 67.842 C 266.438 73.839,269.434 91.770,259.032 102.204 C 245.122 116.157,221.458 105.884,222.272 86.246 C 222.833 72.705,234.525 63.606,248.198 66.072 M210.144 138.117 C 210.047 138.215,209.967 139.177,209.967 140.256 L 209.967 142.217 211.761 142.138 L 213.555 142.060 213.633 140.430 C 213.732 138.381,213.369 137.940,211.587 137.940 C 210.891 137.940,210.241 138.020,210.144 138.117 M218.734 138.479 C 218.575 138.775,218.481 139.702,218.525 140.538 L 218.605 142.060 220.332 142.060 L 222.060 142.060 222.142 140.612 C 222.282 138.152,222.149 137.940,220.469 137.940 C 219.288 137.940,218.969 138.039,218.734 138.479 "/>
        <path fill="#3fb97b" fill-rule="evenodd"
              d="M187.868 57.095 C 187.627 57.194,186.153 58.472,184.593 59.934 C 181.183 63.128,181.467 63.041,179.686 61.437 C 176.825 58.860,174.329 58.138,170.233 58.703 C 166.876 59.166,166.670 59.934,169.568 61.182 C 173.860 63.029,174.884 63.861,174.884 65.506 C 174.884 66.007,173.017 66.044,168.187 65.639 C 165.004 65.372,164.864 65.383,162.924 66.052 C 161.827 66.430,160.392 66.894,159.734 67.083 C 157.766 67.649,156.450 68.455,155.723 69.540 C 155.345 70.104,154.598 71.205,154.063 71.987 C 153.528 72.769,153.090 73.576,153.090 73.781 C 153.090 74.207,153.774 74.285,154.020 73.887 C 154.110 73.741,154.364 73.621,154.584 73.621 C 154.803 73.621,155.663 73.313,156.495 72.935 C 161.065 70.862,161.489 70.743,164.784 70.614 C 167.604 70.503,167.957 70.544,169.350 71.155 C 171.792 72.225,171.253 72.558,167.081 72.557 C 163.614 72.557,162.367 72.743,157.990 73.916 C 156.957 74.192,155.738 74.419,155.281 74.419 C 154.824 74.419,154.384 74.525,154.304 74.655 C 154.224 74.785,152.954 75.592,151.483 76.449 C 146.325 79.453,145.875 79.777,145.116 81.035 C 144.751 81.641,144.050 82.762,143.558 83.527 C 141.121 87.317,140.603 88.323,140.900 88.681 C 141.298 89.162,141.917 89.128,142.506 88.595 C 142.998 88.149,143.250 87.988,144.882 87.069 C 145.376 86.791,146.639 85.995,147.687 85.301 C 149.567 84.057,151.392 83.225,154.583 82.157 C 156.982 81.354,168.626 81.820,169.355 82.748 L 169.807 83.322 167.628 83.495 C 166.429 83.590,164.195 83.680,162.663 83.695 C 160.542 83.715,159.544 83.850,158.481 84.263 C 157.713 84.560,156.395 85.052,155.552 85.354 C 154.710 85.656,153.661 86.057,153.223 86.244 C 152.784 86.432,151.863 86.786,151.175 87.031 C 150.150 87.396,146.955 89.629,146.445 90.336 C 146.372 90.437,145.045 91.556,143.495 92.823 C 140.392 95.360,140.565 95.073,138.901 100.465 C 138.024 103.305,138.020 103.654,138.857 103.654 C 139.215 103.654,139.604 103.504,139.721 103.321 C 139.838 103.137,140.711 102.330,141.661 101.527 C 142.611 100.723,143.520 99.947,143.680 99.801 C 146.939 96.829,147.614 96.372,152.536 93.811 L 154.214 92.938 158.936 93.231 C 164.177 93.557,163.725 93.406,167.394 96.056 C 170.480 98.286,170.421 98.330,164.362 98.335 L 160.352 98.339 158.781 99.458 C 157.916 100.073,157.063 100.701,156.884 100.853 C 156.705 101.005,156.234 101.369,155.839 101.661 C 153.501 103.388,153.057 104.052,153.142 105.697 C 153.230 107.377,153.935 107.842,155.326 107.138 C 155.631 106.984,157.017 106.493,158.405 106.047 C 159.794 105.600,161.169 105.130,161.462 105.001 C 162.647 104.477,163.154 104.432,165.826 104.611 L 168.613 104.797 169.826 105.932 C 170.697 106.747,171.152 107.004,171.440 106.843 C 171.660 106.719,173.392 106.725,175.289 106.854 C 177.186 106.984,179.058 107.094,179.449 107.100 C 179.841 107.105,180.330 107.278,180.536 107.484 C 180.859 107.807,181.204 107.791,183.014 107.372 C 184.170 107.105,186.069 106.754,187.234 106.593 C 188.399 106.433,189.820 106.175,190.393 106.021 C 191.193 105.806,191.810 105.834,193.059 106.144 C 196.676 107.041,201.688 108.109,202.924 108.246 C 204.403 108.411,203.684 107.006,201.337 105.146 C 200.086 104.154,198.913 103.203,198.732 103.033 C 197.936 102.288,195.413 100.268,194.684 99.794 C 193.909 99.289,192.987 99.067,188.068 98.198 C 185.564 97.756,183.022 97.143,182.594 96.878 C 182.079 96.561,183.018 95.640,185.116 94.407 L 187.243 93.156 192.824 93.156 C 197.348 93.156,198.657 93.241,199.734 93.603 C 200.465 93.849,201.601 94.129,202.259 94.225 C 203.872 94.461,207.082 95.413,207.575 95.801 C 207.794 95.974,208.751 96.503,209.701 96.978 C 210.651 97.452,212.266 98.291,213.289 98.843 C 214.312 99.394,215.899 100.237,216.815 100.716 C 221.489 103.160,218.548 97.842,211.165 90.498 L 206.890 86.246 204.508 85.360 C 203.198 84.873,201.925 84.368,201.679 84.239 C 200.587 83.666,197.892 82.914,195.590 82.540 C 188.683 81.419,188.867 81.478,189.836 80.699 C 190.639 80.053,191.039 80.076,198.298 81.179 C 200.620 81.533,208.413 84.868,212.978 87.462 C 213.521 87.771,214.219 87.374,214.219 86.758 C 214.219 85.211,205.447 76.152,202.924 75.093 C 198.509 73.240,197.621 73.090,191.092 73.090 L 184.983 73.090 184.983 72.345 C 184.983 71.120,186.450 69.369,187.475 69.369 C 187.944 69.369,189.016 69.189,189.857 68.970 C 191.775 68.471,192.399 68.470,194.551 68.963 C 200.427 70.308,201.462 70.432,201.462 69.793 C 201.462 69.302,195.725 64.323,195.139 64.305 C 194.889 64.297,193.184 64.303,191.350 64.317 C 188.116 64.343,187.110 64.218,187.110 63.791 C 187.110 63.461,189.793 61.544,191.096 60.943 C 194.030 59.590,195.255 59.055,195.785 58.894 C 196.416 58.701,196.757 57.594,196.319 57.157 C 196.010 56.847,188.600 56.793,187.868 57.095 M170.716 108.970 C 170.716 109.920,170.765 110.309,170.823 109.834 C 170.882 109.359,170.882 108.581,170.823 108.106 C 170.765 107.631,170.716 108.020,170.716 108.970 M180.798 113.621 C 180.801 114.206,180.855 114.414,180.919 114.083 C 180.982 113.753,180.980 113.274,180.914 113.020 C 180.847 112.766,180.795 113.037,180.798 113.621 M170.465 117.608 C 170.465 119.216,170.509 119.839,170.562 118.994 C 170.615 118.148,170.615 116.832,170.561 116.070 C 170.508 115.308,170.464 116.000,170.465 117.608 M179.995 119.336 C 179.995 119.847,180.050 120.056,180.117 119.801 C 180.184 119.545,180.184 119.126,180.117 118.870 C 180.050 118.615,179.995 118.824,179.995 119.336 M179.729 122.259 C 179.729 122.771,179.784 122.980,179.851 122.724 C 179.918 122.468,179.918 122.050,179.851 121.794 C 179.784 121.538,179.729 121.748,179.729 122.259 M170.194 126.910 C 170.193 128.226,170.238 128.798,170.294 128.181 C 170.350 127.564,170.350 126.488,170.295 125.789 C 170.240 125.090,170.195 125.595,170.194 126.910 M178.932 127.841 C 178.932 128.352,178.987 128.561,179.054 128.306 C 179.120 128.050,179.120 127.631,179.054 127.375 C 178.987 127.120,178.932 127.329,178.932 127.841 M178.666 130.764 C 178.666 131.276,178.721 131.485,178.788 131.229 C 178.855 130.973,178.855 130.555,178.788 130.299 C 178.721 130.043,178.666 130.252,178.666 130.764 M169.923 132.093 C 169.923 133.189,169.970 133.638,170.027 133.090 C 170.085 132.542,170.085 131.645,170.027 131.096 C 169.970 130.548,169.923 130.997,169.923 132.093 M177.890 137.010 C 177.891 137.887,177.941 138.214,178.000 137.736 C 178.059 137.258,178.058 136.541,177.997 136.141 C 177.937 135.742,177.888 136.133,177.890 137.010 M169.910 137.542 C 169.912 138.272,169.964 138.540,170.025 138.136 C 170.086 137.732,170.084 137.134,170.021 136.807 C 169.958 136.480,169.908 136.811,169.910 137.542 M170.149 140.673 C 170.108 141.721,169.995 141.984,169.502 142.175 C 168.956 142.385,168.946 142.422,169.387 142.600 C 170.140 142.904,170.404 142.392,170.297 140.835 L 170.198 139.402 170.149 140.673 M178.106 140.226 C 178.067 141.193,178.552 142.724,178.896 142.724 C 179.232 142.724,179.195 142.358,178.823 141.985 C 178.650 141.813,178.426 141.161,178.324 140.537 C 178.169 139.583,178.134 139.534,178.106 140.226 M265.914 141.968 C 255.973 142.089,243.206 142.159,237.541 142.124 C 231.877 142.089,227.274 142.154,227.312 142.268 C 227.396 142.521,249.964 142.529,269.459 142.284 C 281.518 142.133,283.672 142.163,283.874 142.482 C 284.055 142.767,284.112 142.714,284.116 142.259 C 284.118 141.930,284.090 141.681,284.053 141.705 C 284.017 141.728,275.854 141.847,265.914 141.968 M192.292 142.197 L 179.801 142.333 192.093 142.396 C 201.711 142.445,204.387 142.531,204.393 142.791 C 204.398 142.973,204.528 142.905,204.684 142.638 C 205.056 141.997,206.336 142.043,192.292 142.197 M211.761 142.124 C 210.391 142.195,209.967 142.310,209.967 142.613 C 209.967 142.922,210.080 142.948,210.481 142.734 C 211.136 142.383,212.543 142.377,212.757 142.724 C 213.021 143.150,213.349 143.033,213.499 142.458 C 213.575 142.166,213.619 141.950,213.596 141.979 C 213.574 142.008,212.748 142.073,211.761 142.124 M218.602 142.414 C 218.676 142.608,218.738 142.832,218.738 142.911 C 218.738 142.990,218.918 142.906,219.138 142.723 C 219.393 142.512,220.019 142.437,220.865 142.519 C 221.733 142.602,222.193 142.545,222.193 142.353 C 222.193 142.167,221.511 142.060,220.329 142.060 C 218.887 142.060,218.497 142.140,218.602 142.414 M114.020 142.591 C 114.020 142.767,121.353 142.813,135.747 142.727 C 147.698 142.655,154.007 142.566,149.767 142.528 C 126.484 142.321,114.020 142.343,114.020 142.591 M204.385 155.933 C 204.385 156.083,203.638 156.276,202.724 156.362 C 196.306 156.965,191.357 158.326,185.836 161.007 C 184.769 161.525,183.835 162.049,183.760 162.170 C 183.685 162.292,183.381 162.392,183.086 162.392 C 182.316 162.392,182.568 163.422,184.580 168.505 C 185.560 170.982,186.312 172.997,186.312 173.148 C 186.312 173.240,186.701 173.944,187.176 174.713 C 187.651 175.482,188.182 176.343,188.356 176.627 C 188.530 176.911,189.585 178.698,190.700 180.598 C 192.721 184.040,196.618 190.594,197.441 191.934 C 200.075 196.220,200.061 196.275,196.412 196.178 C 193.313 196.095,193.116 196.004,192.062 194.178 C 191.717 193.579,190.763 192.013,189.943 190.698 C 189.122 189.382,187.760 187.129,186.916 185.692 C 186.072 184.254,185.111 182.640,184.779 182.104 C 184.448 181.568,184.060 180.890,183.916 180.598 C 183.773 180.306,183.541 179.887,183.400 179.668 C 182.925 178.926,180.747 174.931,179.098 171.776 C 178.196 170.050,177.221 168.298,176.933 167.883 L 176.408 167.128 174.559 168.946 C 168.693 174.715,165.365 180.432,162.800 189.146 C 162.098 191.534,161.466 197.996,161.896 198.403 C 162.188 198.679,170.813 198.783,206.020 198.934 L 249.782 199.122 250.334 198.570 C 250.713 198.190,250.849 197.788,250.767 197.281 C 250.701 196.876,250.518 195.289,250.358 193.754 C 249.333 183.875,243.323 173.135,235.083 166.462 C 233.403 165.101,229.733 162.622,228.763 162.192 C 228.357 162.012,227.952 161.675,227.863 161.442 C 227.371 160.161,227.250 162.999,227.243 175.947 C 227.238 184.173,227.131 190.330,226.989 190.554 C 226.734 190.958,222.887 191.082,222.504 190.699 C 222.406 190.601,222.266 183.384,222.193 174.662 C 222.106 164.371,221.966 158.799,221.794 158.789 C 221.141 158.752,219.639 158.320,219.347 158.086 C 218.503 157.407,218.460 158.191,218.478 174.053 C 218.488 182.784,218.418 190.131,218.322 190.379 C 218.119 190.909,218.262 190.873,216.092 190.937 C 213.163 191.023,213.409 192.656,213.428 173.251 C 213.445 156.010,213.444 155.975,212.770 156.534 C 212.450 156.800,212.135 156.784,211.169 156.455 L 209.967 156.046 209.967 173.140 C 209.967 192.691,210.238 190.892,207.280 190.936 C 204.422 190.978,204.656 192.597,204.673 172.951 C 204.680 163.606,204.619 155.892,204.536 155.810 C 204.453 155.727,204.385 155.782,204.385 155.933 "/>
        <path fill="#eeb012" fill-rule="evenodd"
              d="M195.863 25.337 C 186.455 31.721,182.588 33.913,178.048 35.432 C 167.892 38.832,156.505 37.865,143.847 32.529 C 143.369 32.327,142.138 32.084,141.113 31.989 L 139.248 31.815 137.464 33.649 C 136.483 34.657,134.365 36.910,132.757 38.656 C 131.149 40.403,129.654 42.025,129.435 42.261 C 129.216 42.497,127.721 44.110,126.113 45.844 C 124.505 47.579,123.010 49.187,122.791 49.418 C 122.571 49.650,120.837 51.517,118.937 53.567 C 110.513 62.657,111.196 61.522,112.524 64.223 C 113.017 65.226,114.020 67.302,114.754 68.837 C 115.488 70.372,116.893 73.302,117.878 75.349 C 120.790 81.404,120.742 81.211,120.867 87.332 C 120.972 92.463,120.856 94.565,120.020 102.724 C 119.476 108.028,118.307 114.987,117.317 118.804 C 117.109 119.608,116.831 120.744,116.700 121.329 C 116.476 122.326,115.942 124.304,114.796 128.372 C 113.562 132.757,112.881 135.264,112.558 136.611 C 112.365 137.415,112.088 138.551,111.943 139.136 C 111.248 141.928,109.927 148.571,109.644 150.698 C 109.470 152.012,108.623 156.876,108.024 160.000 C 106.003 170.562,107.608 178.816,113.403 187.641 C 117.220 193.455,124.289 198.373,136.478 203.695 C 138.086 204.397,139.940 205.210,140.598 205.501 C 143.010 206.570,143.443 206.758,146.312 207.983 C 150.730 209.870,152.668 210.764,155.600 212.267 C 161.321 215.199,165.204 217.093,170.498 219.535 C 175.810 221.984,181.734 225.150,184.850 227.206 C 188.031 229.303,191.029 231.996,194.222 235.624 C 196.019 237.665,197.787 239.672,198.152 240.083 C 198.967 241.002,199.518 240.879,200.668 239.522 C 204.787 234.660,207.565 231.745,209.730 230.013 C 211.652 228.476,215.579 225.751,216.457 225.345 C 216.761 225.204,217.488 224.808,218.073 224.465 C 219.360 223.711,225.240 220.764,228.173 219.404 C 229.342 218.862,234.126 216.529,238.804 214.220 C 248.365 209.502,249.059 209.178,254.485 206.914 C 256.093 206.244,257.767 205.531,258.206 205.331 C 258.645 205.132,259.571 204.717,260.266 204.411 C 263.266 203.087,264.239 202.631,267.508 201.020 C 269.409 200.083,271.442 199.021,272.027 198.660 C 272.611 198.299,273.391 197.855,273.758 197.673 C 281.977 193.605,288.782 184.019,290.747 173.741 C 291.540 169.593,291.301 165.246,289.852 157.475 C 289.634 156.306,289.206 153.854,288.901 152.027 C 288.162 147.598,287.132 142.195,286.621 140.066 C 285.998 137.468,284.367 131.254,283.726 129.037 C 283.515 128.306,283.033 126.571,282.655 125.183 C 282.278 123.794,281.805 122.060,281.604 121.329 C 280.732 118.157,279.625 112.359,278.674 105.983 C 278.440 104.413,278.015 99.988,277.730 96.149 C 276.762 83.108,276.794 82.915,281.603 72.957 C 287.819 60.087,287.820 62.579,281.596 55.947 C 279.813 54.047,278.027 52.133,277.627 51.694 C 277.227 51.256,276.341 50.296,275.659 49.561 C 274.977 48.827,273.707 47.451,272.838 46.505 C 271.968 45.558,270.414 43.882,269.383 42.780 C 268.352 41.678,266.013 39.167,264.186 37.199 C 258.151 30.700,259.046 30.953,251.561 33.622 C 249.661 34.299,247.508 35.015,246.777 35.211 C 246.047 35.407,245.030 35.693,244.518 35.846 C 237.402 37.971,226.976 37.934,221.130 35.762 C 220.618 35.572,219.482 35.147,218.605 34.818 C 216.363 33.976,212.426 31.868,209.302 29.835 C 207.841 28.884,206.226 27.839,205.714 27.512 C 205.203 27.186,203.580 26.125,202.109 25.154 C 198.876 23.020,199.296 23.008,195.863 25.337 M202.310 28.482 C 203.671 29.384,205.203 30.384,205.714 30.706 C 206.226 31.027,207.682 31.969,208.949 32.799 C 221.551 41.046,234.660 42.304,250.498 36.787 C 252.399 36.125,254.551 35.399,255.282 35.175 C 258.045 34.326,257.620 34.112,261.533 38.315 C 263.485 40.411,265.926 43.028,266.959 44.129 C 267.992 45.231,270.213 47.620,271.894 49.438 C 278.829 56.938,280.813 59.070,282.071 60.374 C 283.637 61.998,283.692 62.377,282.671 64.489 C 282.185 65.492,281.046 67.867,280.138 69.767 C 279.230 71.668,277.915 74.419,277.215 75.880 C 274.884 80.753,274.948 80.355,274.969 89.967 C 274.983 96.299,275.099 99.253,275.420 101.528 C 275.658 103.209,275.929 105.422,276.022 106.445 C 276.116 107.468,276.297 108.724,276.424 109.236 C 276.551 109.748,276.837 111.302,277.060 112.691 C 277.676 116.531,278.747 121.283,279.995 125.714 C 280.386 127.103,280.921 129.017,281.184 129.967 C 281.446 130.917,281.927 132.651,282.253 133.821 C 282.578 134.990,283.005 136.664,283.201 137.542 C 283.398 138.419,283.867 140.153,284.244 141.395 C 284.976 143.812,285.783 147.714,286.372 151.687 C 286.572 153.034,286.865 154.769,287.023 155.540 C 289.950 169.836,288.951 177.273,282.887 186.334 C 279.008 192.132,272.476 196.508,259.136 202.247 C 258.040 202.718,256.605 203.343,255.947 203.636 C 255.289 203.928,254.512 204.268,254.219 204.390 C 248.811 206.659,244.624 208.556,241.462 210.170 C 237.107 212.392,231.927 214.955,229.502 216.087 C 228.186 216.701,226.153 217.660,224.983 218.219 C 223.814 218.778,222.558 219.362,222.193 219.517 C 221.827 219.672,221.349 219.919,221.130 220.066 C 220.910 220.213,220.432 220.452,220.066 220.598 C 219.701 220.743,219.223 220.977,219.003 221.117 C 218.784 221.257,217.588 221.939,216.346 222.633 C 215.103 223.327,213.519 224.289,212.827 224.771 C 212.134 225.253,211.503 225.648,211.424 225.648 C 210.747 225.648,205.589 230.252,202.791 233.355 C 199.210 237.325,199.140 237.362,197.899 235.947 C 193.222 230.611,190.384 227.995,186.347 225.298 C 184.884 224.321,183.625 223.522,183.549 223.522 C 183.474 223.522,182.982 223.229,182.455 222.872 C 181.566 222.269,172.983 217.970,169.967 216.617 C 169.236 216.289,164.930 214.190,160.399 211.953 C 152.148 207.880,148.159 205.980,147.860 205.980 C 147.771 205.980,147.148 205.728,146.474 205.420 C 144.544 204.537,143.846 204.232,140.731 202.909 C 124.363 195.956,118.364 191.649,113.682 183.491 C 113.169 182.597,112.662 181.580,112.555 181.232 C 112.448 180.883,112.255 180.466,112.126 180.304 C 110.680 178.488,109.381 170.532,109.784 165.959 C 110.061 162.802,110.765 157.664,110.963 157.344 C 111.040 157.218,111.278 155.940,111.490 154.504 C 112.398 148.369,113.116 144.743,113.952 142.074 C 114.178 141.351,114.589 139.796,114.865 138.619 C 115.544 135.727,115.992 133.999,116.797 131.163 C 118.490 125.206,119.615 120.999,119.890 119.601 C 120.020 118.944,120.297 117.688,120.507 116.811 C 121.581 112.307,122.699 104.230,123.174 97.542 C 124.319 81.388,124.700 83.130,116.209 65.681 C 114.407 61.978,114.267 62.444,118.538 57.903 C 123.913 52.188,125.509 50.481,127.459 48.362 C 131.654 43.803,132.647 42.734,135.947 39.228 C 137.847 37.210,139.490 35.405,139.598 35.217 C 140.042 34.445,141.109 34.559,144.630 35.757 C 154.448 39.096,159.442 40.138,165.615 40.135 C 173.336 40.131,180.359 38.160,187.375 34.028 C 188.880 33.142,190.768 31.927,195.615 28.727 C 199.094 26.430,199.204 26.426,202.310 28.482 M240.606 65.802 C 224.027 68.435,216.442 87.879,227.002 100.675 C 237.498 113.394,257.694 110.291,263.829 95.017 C 267.971 84.705,263.180 72.353,253.289 67.842 C 252.193 67.342,251.098 66.829,250.855 66.702 C 250.310 66.417,246.488 65.717,244.518 65.542 C 243.714 65.471,241.954 65.587,240.606 65.802 M205.505 133.184 C 205.086 133.332,205.046 134.246,205.007 144.746 C 204.983 151.016,204.894 163.749,204.809 173.041 C 204.630 192.603,204.405 190.978,207.280 190.936 C 210.369 190.890,210.071 193.664,209.919 166.379 C 209.846 153.296,209.857 141.575,209.943 140.332 L 210.100 138.073 211.463 137.994 C 212.411 137.939,212.949 138.037,213.229 138.317 C 213.767 138.855,214.048 145.127,213.837 151.894 C 213.362 167.094,213.394 190.005,213.891 190.502 C 214.311 190.922,216.522 191.115,217.964 190.858 C 218.540 190.756,218.595 187.997,218.401 168.638 C 218.189 147.411,218.285 139.317,218.761 138.428 C 219.182 137.640,221.814 137.727,222.108 138.538 C 222.228 138.867,222.291 150.618,222.248 164.651 C 222.203 179.554,222.271 190.314,222.411 190.522 C 222.767 191.049,226.658 191.076,226.991 190.554 C 227.269 190.118,227.165 133.522,226.886 133.242 C 226.668 133.025,206.115 132.968,205.505 133.184 "/>
        <path fill="#141493" fill-rule="evenodd"
              d="M246.777 142.456 L 227.641 142.591 227.571 151.736 C 227.496 161.559,227.531 161.845,228.860 162.266 C 229.173 162.366,230.402 163.108,231.591 163.916 C 239.648 169.389,245.949 177.548,248.578 185.914 C 249.820 189.863,250.068 190.956,250.358 193.754 C 250.518 195.289,250.701 196.876,250.767 197.281 C 250.849 197.788,250.713 198.190,250.334 198.570 L 249.782 199.122 206.020 198.934 C 170.813 198.783,162.188 198.679,161.896 198.403 C 161.466 197.996,162.098 191.534,162.800 189.146 C 165.363 180.439,168.218 175.472,174.132 169.430 L 176.478 167.033 175.482 165.032 C 174.934 163.931,174.084 162.139,173.595 161.050 C 173.105 159.961,172.488 158.591,172.225 158.007 C 170.629 154.469,170.672 154.687,170.499 149.172 C 170.299 142.797,170.300 142.804,169.369 142.629 C 168.967 142.554,156.384 142.574,141.408 142.675 L 114.177 142.857 113.711 145.116 C 113.455 146.359,113.059 148.616,112.831 150.132 C 112.603 151.648,112.360 152.981,112.289 153.094 C 112.219 153.208,112.037 154.240,111.885 155.388 C 111.732 156.536,111.403 158.372,111.153 159.468 C 109.979 164.613,110.604 175.595,112.281 179.269 C 113.787 182.568,115.053 184.991,115.510 185.448 C 115.694 185.633,115.918 186.011,116.006 186.289 C 116.094 186.567,116.341 186.862,116.555 186.944 C 116.769 187.026,116.945 187.246,116.946 187.434 C 116.950 187.796,120.857 191.778,121.689 192.268 C 121.961 192.427,122.709 192.914,123.351 193.350 C 124.712 194.273,124.709 194.271,127.761 196.036 C 129.798 197.213,134.169 199.392,137.542 200.911 C 138.126 201.174,139.023 201.578,139.535 201.807 C 140.047 202.037,141.362 202.598,142.458 203.055 C 145.353 204.261,145.855 204.477,149.502 206.098 C 150.379 206.488,151.556 207.009,152.118 207.257 C 152.992 207.642,156.604 209.436,163.322 212.820 C 164.860 213.594,166.904 214.571,171.694 216.819 C 178.080 219.817,181.785 221.758,185.756 224.186 C 186.771 224.807,188.470 226.065,189.255 226.777 C 189.537 227.033,189.838 227.243,189.924 227.243 C 190.429 227.243,196.264 233.105,198.313 235.671 L 199.019 236.554 200.174 235.322 C 203.057 232.247,207.027 228.313,208.239 227.328 C 209.845 226.024,213.889 223.256,214.189 223.256 C 214.307 223.256,214.680 223.017,215.017 222.724 C 215.354 222.432,215.782 222.193,215.969 222.193 C 216.155 222.193,216.466 222.039,216.659 221.851 C 217.005 221.515,223.523 218.248,228.173 216.081 C 229.488 215.468,234.332 213.113,238.937 210.848 C 249.178 205.811,249.383 205.713,249.651 205.714 C 249.770 205.714,250.547 205.405,251.379 205.027 C 252.210 204.649,253.279 204.170,253.754 203.964 C 254.229 203.757,255.007 203.416,255.482 203.207 C 255.957 202.997,257.243 202.442,258.339 201.974 C 264.622 199.292,270.989 196.055,273.853 194.086 C 274.544 193.611,275.173 193.223,275.250 193.223 C 275.867 193.223,280.119 189.240,281.329 187.529 C 281.621 187.115,282.100 186.462,282.392 186.077 C 283.103 185.142,283.519 184.478,283.996 183.522 C 284.215 183.083,284.503 182.545,284.636 182.326 C 287.468 177.680,288.894 168.910,287.733 163.273 C 287.528 162.277,287.279 160.684,287.179 159.734 C 287.079 158.784,286.836 157.409,286.639 156.678 C 286.442 155.947,286.203 154.571,286.108 153.621 C 286.013 152.671,285.778 151.236,285.586 150.432 C 285.394 149.628,285.160 148.312,285.067 147.508 C 284.973 146.704,284.789 145.688,284.656 145.249 C 284.524 144.811,284.284 143.944,284.124 143.322 L 283.833 142.193 274.873 142.256 C 269.946 142.292,257.302 142.381,246.777 142.456 M178.942 142.633 C 178.216 142.926,179.572 156.099,180.440 157.191 C 180.564 157.347,180.752 157.774,180.858 158.140 C 181.859 161.608,183.069 163.288,183.760 162.170 C 184.052 161.698,188.779 159.547,191.362 158.712 C 195.414 157.400,198.280 156.804,202.658 156.362 C 203.535 156.273,204.340 156.069,204.448 155.908 C 204.682 155.556,204.721 143.481,204.490 142.879 C 204.332 142.468,179.930 142.233,178.942 142.633 M210.565 142.634 C 210.311 142.737,210.233 144.360,210.233 149.482 L 210.233 156.195 211.315 156.519 C 213.168 157.074,213.156 157.117,213.156 149.655 C 213.156 144.908,213.068 143.008,212.837 142.777 C 212.520 142.461,211.201 142.378,210.565 142.634 M219.193 142.623 C 218.832 142.984,218.969 157.783,219.336 158.059 C 220.008 158.565,221.685 158.918,221.814 158.582 C 221.881 158.408,221.903 154.739,221.865 150.429 L 221.794 142.591 220.588 142.513 C 219.925 142.469,219.297 142.519,219.193 142.623 "/>
    </g>
</svg>
